<svg width="268" height="81" viewBox="0 0 268 81" fill="none" xmlns="http://www.w3.org/2000/svg">
<path d="M260.02 25.28C259.31 24.13 258.41 22.91 257.29 21.78C257.2 21.62 257.12 21.44 257.02 21.28C254.72 17.54 250.43 13.11 242.97 13.25C239.81 13.25 236.83 14.16 234.37 15.85C232.91 16.82 231.65 18.01 230.56 19.4C230.45 19.24 230.33 19.09 230.2 18.96C229.68 18.44 229.01 18.16 228.29 18.01C228.21 16.69 227.93 15.69 227.2 14.96C227.16 14.92 227.12 14.9 227.08 14.86C227.18 14.67 227.29 14.48 227.38 14.28L227.45 14.13C228.25 12.4 228.9 10.58 228.21 8.99995L228.16 8.88995C227.65 7.85995 226.59 7.34995 225.44 7.13995C225.54 6.39995 225.5 5.67995 225.21 4.99995L225.16 4.88995C223.9 2.36995 219.37 2.92995 218.16 3.39995C217.02 3.85995 216.41 4.68995 216.04 5.17995C215.98 5.25995 215.92 5.34995 215.86 5.41995C215.49 5.43995 214.45 4.97995 214.01 4.78995C213.72 4.65995 213.45 4.53995 213.2 4.43995L212.82 4.28995C211.2 3.65995 208.99 2.78995 206.53 3.13995C203.84 3.48995 201.6 5.36995 200.23 8.39995C199.49 9.97995 198.66 12.23 199.57 13.93C198.61 14.09 197.76 14.47 197.17 15.28C196.24 16.47 196.24 18.17 196.35 20.64C196.37 21.09 196.39 21.52 196.39 21.88V25.68C195.92 25.06 195.42 24.46 194.88 23.89C193.88 22.2 192.71 20.65 191.33 19.28C186.63 14.66 180.12 12.33 173.01 12.73H172.98C171.55 12.83 169.45 13.06 167.56 13.57C163.86 14.6 160.6 16.49 157.95 19.06C157.45 18.52 156.76 18.21 155.96 18.04C155.92 17.03 155.75 16.07 155.14 15.26C154.02 13.76 151.69 13.81 149.24 13.87C148.91 13.87 148.61 13.89 148.36 13.89H137.95C137.45 13.89 136.91 13.89 136.37 13.87C134.85 13.84 133.42 13.82 132.33 13.97C131.4 14.09 130.73 14.42 130.24 14.85C129.13 13.93 127.53 13.96 125.97 13.99C125.71 13.99 125.46 14 125.23 14H121.19C120.38 14 119.5 13.98 118.61 13.97C116.42 13.93 114.35 13.9 112.95 14.06C111.78 14.09 110.85 14.5 110.16 15.35C110.13 15.39 110.1 15.44 110.07 15.49C109.95 15.3 109.82 15.12 109.66 14.96C108.46 13.76 106.52 13.82 104.81 13.87C104.28 13.89 103.85 13.89 103.34 13.87C101.57 13.83 99.5603 13.79 98.3403 15.13C97.3003 16.34 97.3003 18.15 97.4103 20.78C97.4303 21.21 97.4503 21.6 97.4503 21.92V26.44C96.8703 25.01 96.2903 23.59 95.7103 22.14C95.6403 21.97 95.5803 21.8 95.5103 21.63C95.0903 20.53 94.5603 19.16 93.3003 18.42L93.1703 18.35C93.0303 18.28 92.8803 18.24 92.7303 18.19C92.7303 18.17 92.7203 18.16 92.7103 18.14C92.6403 17.97 92.5803 17.8 92.5103 17.63C92.0903 16.53 91.5603 15.16 90.3003 14.42L90.1703 14.35C89.1103 13.82 87.8303 13.85 86.5803 13.87C86.0303 13.88 85.5203 13.87 84.9303 13.85C82.9803 13.77 80.7703 13.67 79.6003 15.27C78.6703 16.46 78.6703 18.16 78.7903 20.63C78.8103 21.08 78.8303 21.51 78.8303 21.87V35.46C78.0103 32.01 77.1803 28.55 76.3603 25.09C76.2803 24.75 76.2003 24.36 76.1103 23.95C75.6703 21.82 75.2103 19.61 73.6703 18.62C73.3703 18.42 73.0403 18.28 72.7103 18.18C72.3203 16.69 71.7803 15.34 70.6703 14.62C69.5303 13.86 68.1003 13.92 66.7203 13.98C66.0203 14.01 65.4003 14 64.7503 14C63.5503 13.99 62.4203 13.98 61.6003 14.08C58.6803 14.42 58.1803 16.73 57.9103 17.97C57.8703 18.18 57.8203 18.4 57.7503 18.68C55.5503 28.5 53.0903 39.16 50.4203 50.44C49.2303 49.64 47.6803 49.7 46.1803 49.77C46.0603 49.77 45.9503 49.77 45.8303 49.77V24.69C45.8303 24.42 45.8303 24.14 45.8403 23.86C45.8803 21.96 45.9103 20.16 44.7603 19.01C44.2103 18.46 43.5403 18.2 42.8303 18.07C42.7703 16.87 42.5403 15.79 41.7603 15.01C40.6503 13.9 39.0403 13.95 37.6103 13.99C37.0103 14.01 36.4603 14 35.8703 13.99C34.5403 13.98 33.6803 13.97 33.0803 14.06C32.1603 14.08 31.3203 14.44 30.7103 15.08C29.7103 16.11 29.5003 17.62 29.4903 19.14C29.0703 18.62 28.6203 18.12 28.1103 17.65C25.3103 15.06 20.7803 13.69 15.6703 13.89H15.6503C14.9103 13.93 13.9103 13.91 12.8403 13.9C11.9903 13.9 11.1903 13.9 10.1403 13.87C8.36028 13.81 6.51028 13.75 5.30028 14.76C3.92028 15.93 3.97028 18.12 4.03028 20.67C4.03028 21.05 4.05028 21.43 4.05028 21.76V54.58C4.05028 54.91 4.04028 55.28 4.03028 55.68C3.96028 58.38 3.99028 60.1 4.99028 61.3C5.53028 61.9 6.26028 62.2 7.04028 62.35C7.12028 63.61 7.36028 64.56 7.99028 65.3C9.16028 66.59 11.1303 66.52 12.8703 66.46C13.6003 66.43 14.1303 66.46 14.7003 66.49C15.1003 66.51 15.5203 66.54 15.9403 66.54C16.9703 66.54 18.0203 66.39 18.9403 65.72L19.0503 65.63C20.4503 64.47 20.4003 62.54 20.3503 60.68C20.3503 60.34 20.3303 59.98 20.3303 59.63V50.62C20.3303 50.31 20.3303 49.98 20.3103 49.62C20.3003 49.29 20.2903 48.8 20.2903 48.38C20.3903 48.38 20.4903 48.38 20.5703 48.37C21.0003 48.35 21.4303 48.33 21.7103 48.3C24.8203 48.05 27.4603 47.18 29.5803 45.76V54.58C29.5803 54.91 29.5703 55.3 29.5603 55.71C29.4903 58.24 29.5003 59.87 30.2303 61L30.3203 61.13C30.8703 61.86 31.6603 62.22 32.5603 62.4C32.6203 63.49 32.8003 64.33 33.2303 64.99L33.3203 65.12C34.4503 66.63 36.6703 66.59 38.6203 66.55C38.8503 66.55 39.0803 66.55 39.2703 66.55H48.1603C48.4103 66.55 48.6903 66.55 48.9903 66.57C49.3803 66.58 49.7803 66.6 50.1703 66.6C51.2303 66.6 52.2703 66.49 53.1503 66.03C54.2603 66.62 55.7303 66.6 57.0703 66.57C57.6303 66.56 58.1103 66.57 58.6603 66.58C60.0603 66.63 61.6503 66.69 62.9003 65.94L63.0903 65.81C64.3703 64.85 64.6703 63.21 64.9703 61.63C65.0103 61.4 65.0503 61.17 65.1003 60.95C65.1603 60.7 65.2203 60.42 65.2903 60.12C65.3503 59.82 65.4603 59.34 65.5603 59.02C65.9503 58.99 66.5303 59.02 66.9903 59.03C67.4703 59.05 67.9803 59.06 68.5303 59.05C68.7803 60.09 69.1803 61.12 70.0903 61.81L70.2203 61.9C70.5803 62.13 70.9703 62.28 71.3803 62.39C71.6303 63.65 71.9803 64.98 73.0903 65.81L73.2203 65.9C74.4303 66.68 76.0103 66.63 77.6803 66.57C78.3303 66.55 78.9503 66.54 79.7103 66.57C80.0803 66.58 80.4603 66.6 80.8503 66.6C81.8503 66.6 82.8803 66.49 83.7203 66C84.8203 66.53 86.1903 66.49 87.5303 66.45C88.1903 66.43 88.7803 66.43 89.4103 66.45C90.9303 66.5 92.4903 66.56 93.6803 65.73L93.7803 65.66C95.1103 64.62 95.0903 62.89 95.0603 61.62V53.46C95.7003 55.08 96.3403 56.68 96.9503 58.24L97.0503 58.5C97.5503 59.8 98.1703 61.42 99.7403 62.06C99.7903 62.08 99.8503 62.1 99.9003 62.12C99.9103 62.16 99.9303 62.2 99.9503 62.23L100.05 62.49C100.55 63.79 101.17 65.41 102.74 66.05C103.51 66.39 104.35 66.47 105.21 66.47C105.61 66.47 106.01 66.45 106.41 66.43C107.05 66.4 107.66 66.4 108.31 66.43C109.71 66.5 111.45 66.59 112.64 65.39C112.79 65.24 112.92 65.07 113.04 64.9C113.19 65.15 113.36 65.38 113.58 65.58L113.7 65.68C114.74 66.52 116.29 66.56 118.53 66.53H127.91C128.12 66.53 128.36 66.53 128.62 66.53C128.96 66.53 129.3 66.54 129.64 66.54C131.15 66.54 132.6 66.39 133.54 65.45C134.69 64.3 134.63 62.55 134.57 61C134.56 60.73 134.55 60.47 134.55 60.23C134.55 59.97 134.57 59.67 134.58 59.37C134.66 57.88 134.74 56.2 133.67 54.92C133.13 54.33 132.42 54 131.61 53.83C131.58 52.8 131.38 51.77 130.67 50.92C129.55 49.67 127.67 49.59 125.61 49.67C125.59 49.26 125.57 48.72 125.59 48.29C126.08 48.28 126.74 48.32 127.19 48.34C129.21 48.45 131.12 48.56 132.36 47.31C133.52 46.15 133.48 44.33 133.44 42.72C133.44 42.5 133.43 42.28 133.43 42.09C133.43 41.93 133.43 41.73 133.45 41.51C133.51 40.01 133.58 38.14 132.51 36.85C131.97 36.25 131.26 35.94 130.46 35.77C130.41 34.72 130.19 33.67 129.51 32.85C128.58 31.81 127.18 31.61 125.61 31.61C125.6 31.28 125.58 30.9 125.59 30.58C126.07 30.56 126.68 30.58 127.07 30.58C127.7 30.59 128.21 30.59 128.8 30.62C130.35 30.69 132.1 30.76 133.29 29.68C134.02 30.28 134.9 30.51 135.79 30.57V55.69C135.79 55.99 135.78 56.31 135.77 56.63C135.71 58.34 135.66 60.12 136.73 61.3L136.8 61.38C137.34 61.92 138.02 62.2 138.76 62.34C138.8 63.46 139.01 64.52 139.73 65.31L139.8 65.39C140.7 66.29 141.98 66.47 143.25 66.47C143.67 66.47 144.09 66.45 144.5 66.43C145.2 66.4 145.78 66.4 146.4 66.43C147.97 66.5 149.75 66.58 150.94 65.39C152.13 64.2 152.08 62.42 152.03 60.7C152.03 60.37 152.01 60.03 152.01 59.71V47.86C153.12 51.12 154.77 53.94 157.02 56.33C158.04 58.08 159.27 59.67 160.74 61.1C165.11 65.33 171.05 67.61 177.58 67.61C178.03 67.61 178.49 67.6 178.95 67.58C187.46 67.22 192.77 62.93 195.73 59.41C195.93 59.17 196.14 58.91 196.35 58.64C196.44 59.79 196.69 60.66 197.31 61.33L197.45 61.47C197.98 61.95 198.62 62.2 199.32 62.32C199.39 63.62 199.63 64.59 200.3 65.32L200.44 65.46C201.62 66.53 203.35 66.47 205.03 66.42C205.69 66.4 206.28 66.4 206.91 66.42C208.42 66.48 209.99 66.53 211.19 65.7L211.29 65.63C212.62 64.59 212.6 62.86 212.57 61.59V53.44C213.21 55.06 213.85 56.66 214.46 58.22L214.56 58.48C215.06 59.78 215.68 61.4 217.25 62.04C217.3 62.06 217.36 62.08 217.41 62.1C217.42 62.14 217.44 62.18 217.46 62.21L217.56 62.47C218.06 63.77 218.68 65.39 220.25 66.03C221.02 66.37 221.86 66.45 222.72 66.45C223.12 66.45 223.52 66.43 223.92 66.41C224.56 66.38 225.17 66.38 225.82 66.41C227.22 66.48 228.96 66.56 230.15 65.37C231.39 64.13 231.32 62.01 231.24 59.76C231.23 59.37 231.21 59 231.21 58.68V57.68C231.49 58.01 231.79 58.32 232.09 58.63C232.16 58.75 232.22 58.88 232.29 58.99C235.23 64.1 240.27 67.09 245.85 67.09C246.07 67.09 246.28 67.09 246.5 67.08C252.43 66.83 257.16 63.96 260.18 58.75C262.66 54.41 263.87 48.89 263.87 41.9C263.87 35.36 262.49 29.44 259.97 25.22L260.02 25.28ZM175.97 45.8C175.63 46.5 175.36 47.23 175.08 48.17C174.44 47.2 173.7 46.3 172.86 45.5C172.02 43.88 170.9 42.43 169.55 41.21C172.34 39.72 174.63 37.36 176.02 34.52C176.36 33.82 176.63 33.08 176.92 32.15C177.56 33.12 178.3 34.02 179.14 34.82C179.98 36.44 181.1 37.9 182.45 39.11C179.66 40.6 177.37 42.96 175.98 45.81L175.97 45.8ZM214.99 26.45C214.41 25.02 213.83 23.59 213.25 22.15C213.18 21.98 213.12 21.81 213.05 21.64C212.63 20.54 212.1 19.17 210.84 18.44H210.82C211.06 18.19 211.26 17.94 211.43 17.73C211.52 17.61 211.66 17.45 211.74 17.36C212.31 17.38 213.19 17.77 213.95 18.11C214.22 18.23 214.49 18.36 214.76 18.49C214.8 18.51 214.85 18.53 214.9 18.55C214.88 19.22 214.9 19.96 214.94 20.78C214.96 21.21 214.98 21.6 214.98 21.92V26.44L214.99 26.45ZM246.68 43.82C246.47 45.19 245.82 49.35 243.92 50.28C243.73 50.37 243.46 50.42 243.19 50.42C241.64 44.93 241.89 35.36 244.04 31.54L244.06 31.51C244.73 30.28 245.29 29.99 246.07 29.92C246.12 29.92 246.17 29.92 246.22 29.91C247.18 33.46 247.42 38.86 246.68 43.82Z" fill="black"/>
<path d="M173.14 14.9704C180.45 14.5604 186.071 17.2505 189.751 20.8805C193.431 24.5105 195.951 29.9505 196.301 36.8503C196.651 44.16 194.421 49.95 191.031 53.9899C187.701 57.9699 182.731 61.07 175.881 61.36C168.631 61.71 163.021 59.0803 159.331 55.5104C155.471 51.7705 153.191 46.6202 152.721 39.6003C152.261 32.2903 154.771 26.3201 157.93 22.4001C160.33 19.4201 163.781 16.9602 168.171 15.7302C169.691 15.3202 171.501 15.0904 173.14 14.9704ZM243 15.4997C248.91 15.3797 252.77 18.6598 255.11 22.4596V22.4499C257.45 26.3698 258.68 31.9199 258.68 37.9499C258.68 44.4499 257.63 49.5901 255.29 53.6901C252.95 57.7299 249.09 60.6602 243.471 60.8903C237.791 61.1303 233.52 57.7903 231.3 53.9303C227.85 48.2003 226.62 38.1896 228.49 29.7096C229.6 24.51 231.77 20.2903 235.63 17.7204C237.5 16.4404 239.96 15.4997 243 15.4997ZM65.8602 16.2604C67.0902 16.2604 68.7305 16.0199 69.4305 16.4899C70.4305 17.14 70.7803 20.0003 71.1903 21.6403L71.1805 21.6501C73.9905 33.4701 76.79 45.1703 79.66 57.1003C79.96 58.0903 80.2506 59.3203 79.8406 59.8503C79.3106 60.6102 77.2102 60.32 75.8602 60.32C74.1002 60.32 72.2299 60.5599 71.41 60.03C70.7103 59.5098 70.5905 57.9301 70.3006 56.6403C70.0706 55.4704 69.7705 53.7203 69.1307 53.1901C68.3707 52.6601 66.5599 52.8405 65.3299 52.8405C63.6401 52.8405 62.23 52.6 61.2401 53.07C60.3604 53.5401 60.1804 55.3497 59.8904 56.4596C59.6005 57.8695 59.4204 59.4998 58.7205 60.03C57.8405 60.55 56.0801 60.32 54.7401 60.32C53.4001 60.32 51.4103 60.4901 50.9403 59.8503C50.5303 59.3203 50.9407 58.0297 51.1707 57.0397C54.1607 44.5199 57.1401 31.7099 59.95 19.1901C60.36 17.5501 60.3007 16.5 61.8807 16.32C62.7607 16.2001 64.4004 16.2604 65.8602 16.2604ZM36.9705 16.2497C38.1405 16.2497 39.6602 16.0703 40.1903 16.6003C40.7802 17.1903 40.6004 19.1799 40.6004 20.6999V47.3796C40.6004 49.0196 40.4206 51.0701 41.0106 51.6501C41.5906 52.24 43.171 52.0602 45.161 52.0602C46.6808 52.0602 48.6103 51.7701 49.3104 52.4098H49.2908C49.8808 53.0499 49.701 54.7402 49.701 56.2702C49.701 57.8001 49.8703 59.3797 49.2303 59.9596C48.5303 60.5396 46.4304 60.3102 45.1404 60.3102H36.2508C34.9108 60.3102 32.6304 60.48 32.1004 59.78C31.5805 58.9599 31.8104 56.1499 31.8104 54.57V21.8698C31.8103 19.6998 31.291 16.3102 33.161 16.3102H33.2811C33.8115 16.1903 35.5709 16.2497 36.9705 16.2497ZM113.099 16.32C114.849 16.08 118.42 16.2594 121.17 16.2594H125.21C126.5 16.2594 128.31 16.08 128.84 16.61C129.42 17.25 129.19 19.0603 129.19 20.3503C129.19 21.5203 129.43 23.3997 128.84 24.0397C128.19 24.6797 126.2 24.3904 124.86 24.3903C123.52 24.3903 121.299 24.22 120.769 24.86C120.13 25.7401 120.42 27.4899 120.42 29.2497C120.42 30.5997 120.19 32.9397 120.83 33.5798C121.82 34.5797 126.859 33.2902 127.849 34.4001C128.429 35.1001 128.2 37.2003 128.2 38.1403C128.2 39.3103 128.38 41.1803 127.79 41.7702C126.74 42.82 122.059 41.4804 120.889 42.4704C120.07 43.1709 120.42 45.8002 120.42 47.03C120.42 48.26 120.13 51.1902 120.95 51.7702C122.291 52.6498 127.909 51.2405 129.019 52.4704L129.03 52.4802C129.61 53.1804 129.32 55.0501 129.32 56.28C129.32 57.51 129.55 59.3198 128.97 59.9098C128.379 60.4997 126.219 60.32 124.93 60.32H116.15C114.921 60.32 112.701 60.4399 112.11 59.9704C111.41 59.3304 111.639 56.5196 111.639 54.8796V21.9401C111.639 20.5303 111.34 17.4906 111.93 16.7302C112.219 16.3803 112.69 16.32 113.099 16.32ZM6.76056 16.4899C7.46087 15.9102 9.68027 16.1403 11.0301 16.1403C12.7901 16.1403 14.5403 16.2003 15.7703 16.1403L15.7801 16.1501C20.1701 15.9801 24.2004 17.0902 26.6004 19.3102C28.8803 21.4202 30.5206 24.4002 30.3406 29.4899C30.1006 37.0999 25.8302 41.4899 18.5203 42.07C17.5303 42.19 15.9503 42.0702 15.4803 42.4802C14.8404 43.0601 15.0701 45.2295 15.0701 46.6296V55.6403C15.0702 57.45 15.3001 59.3197 14.6004 59.9098C13.7204 60.5498 12.1403 60.1999 10.5604 60.1999C9.39037 60.1999 7.23045 60.4297 6.64045 59.7897C6.06048 59.0797 6.28986 56.2197 6.28986 54.5798V21.7604C6.28986 19.9404 6.06056 17.0799 6.76056 16.4899ZM81.3904 16.6696C82.0307 15.79 84.3702 16.1402 85.95 16.1403C87.06 16.1403 88.4707 16.0198 89.1707 16.3698C89.8706 16.7798 90.2207 18.0098 90.6307 18.9997C92.9707 24.8497 95.3108 30.53 97.7108 36.32C98.1207 37.26 98.4705 38.3699 99.3504 38.78C99.8203 38.13 99.7001 37.2003 99.7 36.2604V21.9303C99.7 20.4103 99.3506 17.43 100.051 16.61C100.641 15.9602 102.74 16.1403 104.03 16.1403C105.32 16.1403 107.43 15.9105 108.07 16.5505C108.77 17.2506 108.48 20.1799 108.48 21.6999V54.7604C108.48 56.3405 108.77 59.1503 108.07 59.8503C107.42 60.4899 105.78 60.1999 104.44 60.1999C103.1 60.1999 101.52 60.4301 100.64 60.0202C99.8804 59.7302 99.4704 58.4999 99.0604 57.4499C96.6604 51.3699 94.3208 45.5199 91.7508 39.4899C91.4008 38.56 91.1105 37.3901 90.1707 36.86C89.6407 37.5 89.8201 38.5499 89.8201 39.4899V57.2204C89.8202 58.2103 89.9399 59.4999 89.41 59.9098C88.6499 60.4296 86.8403 60.1999 85.4305 60.1999C84.0205 60.1999 82.09 60.4403 81.45 59.8503C80.8101 59.1501 81.1004 56.3398 81.1004 54.6999V21.8796C81.1003 20.2995 80.7505 17.4895 81.3904 16.6696ZM198.93 16.6696C199.571 15.79 201.91 16.1402 203.49 16.1403C204.6 16.1403 206.011 16.0198 206.711 16.3698C207.411 16.7798 207.761 18.0098 208.171 18.9997C210.511 24.8497 212.851 30.53 215.251 36.32C215.661 37.26 216.011 38.3699 216.89 38.78C217.36 38.13 217.24 37.2003 217.24 36.2604V21.9303C217.24 20.4103 216.891 17.43 217.591 16.61C218.181 15.9602 220.28 16.1403 221.57 16.1403C222.86 16.1403 224.97 15.9105 225.61 16.5505C226.31 17.2505 226.02 20.1799 226.02 21.6999V54.7604C226.02 56.3405 226.31 59.1503 225.61 59.8503C224.96 60.4899 223.32 60.1999 221.98 60.1999C220.64 60.1999 219.06 60.4301 218.18 60.0202C217.42 59.7302 217.01 58.4999 216.6 57.4499C214.2 51.3699 211.861 45.5199 209.291 39.4899C208.941 38.56 208.651 37.3901 207.711 36.86C207.181 37.5 207.36 38.5499 207.36 39.4899V57.2204C207.36 58.2103 207.48 59.4999 206.95 59.9098C206.19 60.4296 204.38 60.1999 202.971 60.1999C201.561 60.1999 199.63 60.4403 198.99 59.8503C198.35 59.1501 198.64 56.3398 198.64 54.6999V21.8796C198.64 20.2995 198.291 17.4895 198.93 16.6696ZM132.64 16.1901C133.92 16.0102 136.15 16.1296 137.96 16.1296H148.37C149.83 16.1296 152.81 15.9003 153.34 16.6003C153.87 17.3102 153.69 18.8298 153.69 20.2897L153.721 20.28C153.721 21.6898 153.9 23.3296 153.31 23.9098C152.14 25.1398 148.57 23.56 147.28 24.6696C146.58 25.2596 146.81 27.4202 146.81 28.7702V55.7399C146.81 57.3697 147.04 59.1896 146.4 59.8298C145.75 60.4698 143.94 60.1803 142.42 60.1803C141.13 60.1804 139.08 60.4697 138.44 59.8298C137.86 59.1897 138.09 57.1999 138.09 55.7399V28.7702C138.09 27.4803 138.32 25.4304 137.68 24.7302C136.51 23.5602 132.76 25.0798 131.65 23.9098C131.07 23.3799 131.24 21.7404 131.24 20.3405C131.24 18.1205 130.83 16.4201 132.64 16.1901ZM175.381 20.82C175.131 19.9201 173.86 19.92 173.61 20.82L172.52 24.8005C171.85 27.24 171.511 28.4601 170.991 29.53C169.761 32.06 167.74 34.1098 165.23 35.3698C164.17 35.9098 162.95 36.2597 160.52 36.9596C160.181 37.0596 159.851 37.1597 159.531 37.2497C158.631 37.5097 158.631 38.8198 159.531 39.0798C159.851 39.1797 160.181 39.2699 160.52 39.3698C162.95 40.0697 164.17 40.4198 165.23 40.9596C167.74 42.2196 169.761 44.2805 170.991 46.8005C171.511 47.8703 171.85 49.0904 172.52 51.53L173.61 55.5104C173.86 56.4101 175.13 56.41 175.381 55.5104L176.471 51.53C177.14 49.0902 177.481 47.8704 178.001 46.8005C179.231 44.2705 181.251 42.2196 183.761 40.9596C184.821 40.4197 186.041 40.0698 188.471 39.3698C188.811 39.2698 189.141 39.1698 189.461 39.0798C190.361 38.8196 190.361 37.5097 189.461 37.2497C189.141 37.1497 188.811 37.0596 188.471 36.9596C186.041 36.2597 184.821 35.9098 183.761 35.3698C181.251 34.1098 179.231 32.0499 178.001 29.53C177.481 28.46 177.14 27.2402 176.471 24.8005L175.381 20.82ZM246.7 25.4899C245.94 24.44 244.48 23.4504 242.78 23.6803C240.9 23.8603 239.85 25.0303 239.09 26.4303C236.16 31.6406 236.28 45.2105 239.32 50.1803C239.67 50.8302 240.31 51.5901 240.84 51.9401C242.01 52.8201 243.76 52.8797 244.93 52.2897C247.45 51.0595 248.38 47.5496 248.91 44.1598L248.92 44.1501C249.86 37.8301 249.45 29.0599 246.7 25.4899ZM64.8699 30.9401C64.2901 31.7002 64.1107 33.2806 63.8807 34.5104C63.5307 36.9003 63.1803 39.2405 62.7703 41.7604C62.6003 42.7605 62.0709 44.6904 62.5408 45.3903C63.001 46.0998 64.1204 45.9196 65.1102 45.9196C66.1001 45.9196 67.3304 45.9702 67.6805 45.3903L67.6707 45.3796C68.1401 44.6791 67.5606 42.5695 67.3807 41.5798C66.9107 39.3598 66.3907 36.6697 65.9207 34.3298C65.7507 33.1597 65.5699 31.0601 64.8699 30.9401ZM17.41 23.4401C17 23.3802 16.2999 23.4397 16.1199 23.4997C14.8901 23.7398 15.0701 25.0803 15.0701 26.3102V32.1003C15.0701 33.1601 15.07 34.2102 15.5399 34.5602C16.4099 35.2602 18.2305 34.6202 18.9305 34.2702C20.7403 33.4502 21.6199 31.3401 21.6199 29.0602C21.6199 26.1302 20.28 23.6701 17.41 23.4401ZM218.99 5.49968C219.751 5.14987 222.729 5.09019 223.139 5.90984C223.549 6.83979 222.61 8.71993 222.32 9.36003C221.21 11.76 218.63 14.3895 214.83 13.3395C213.78 13.0395 212.789 12.4595 211.849 12.0495C210.8 11.5795 209.629 11.05 208.519 11.11C206.95 11.2202 206.709 12.8002 205.599 13.2702V13.2897C204.899 13.5797 202.15 13.7596 201.62 12.9997C201.03 12.1796 201.85 10.2498 202.26 9.3698C203.08 7.54983 204.54 5.6803 206.82 5.39031C208.87 5.10046 210.86 5.98026 212.38 6.56023C213.43 6.97023 215.12 7.9599 216.47 7.61003C217.76 7.31003 217.82 5.96968 218.99 5.49968Z" fill="#F7F2E5"/>
<path d="M184.08 67.4301C183.71 66.7901 183.14 66.3501 182.44 66.1701L182.36 66.1501C182.3 65.9101 182.21 65.6701 182.07 65.4301C181.7 64.7901 181.13 64.3501 180.43 64.1701L179.68 63.9701C178.97 63.7901 178.27 63.8901 177.69 64.2301C177.19 64.5001 176.81 64.9101 176.57 65.4101C176.35 64.8301 176.09 64.3501 175.8 63.9601C175.38 63.3901 174.86 62.9601 174.23 62.6701C174.09 62.3901 173.95 62.1601 173.8 61.9601C173.47 61.5101 173.07 61.1401 172.63 60.8601C173.04 59.8201 173.46 58.7501 173.91 57.6301C174.17 56.9501 174.13 56.2501 173.84 55.6701C173.54 54.9701 172.97 54.4801 172.26 54.2901L172.03 54.2201C171.99 54.0301 171.92 53.8401 171.84 53.6701C171.54 52.9701 170.97 52.4801 170.26 52.2901L169.34 52.0201C168.65 51.8101 167.95 51.8701 167.34 52.1801C166.69 52.4801 166.2 52.9801 165.92 53.6601C164.97 56.0501 163.71 59.2801 162.12 63.3201C161.86 62.8301 161.55 62.3701 161.14 61.9801C160.92 61.7601 160.67 61.5601 160.39 61.3801C160.27 61.3001 160.15 61.2201 160.02 61.1501C159.76 60.7001 159.47 60.3101 159.13 59.9801C158 58.8701 156.53 58.3101 154.78 58.3101C154.62 58.3101 154.45 58.3101 154.28 58.3301C154.15 58.2701 154.02 58.2301 153.88 58.1901L153.84 58.0401C153.63 57.3401 153.17 56.7901 152.59 56.4801C151.97 56.1101 151.27 56.0101 150.57 56.1901L149.95 56.3501C149.26 56.5401 148.71 56.9701 148.33 57.6301C148.23 57.8201 148.15 58.0101 148.1 58.2201C147.84 57.7601 147.48 57.4101 147.05 57.1801C146.41 56.8001 145.69 56.7101 144.99 56.9201L144.32 57.1101C143.87 57.2501 143.5 57.5001 143.19 57.8301C143.06 57.5901 142.91 57.3501 142.7 57.1501C142.33 56.7801 141.9 56.5401 141.42 56.4301C141.31 55.9501 141.06 55.5201 140.7 55.1501C140.18 54.6301 139.53 54.3601 138.82 54.3601H131.91C131.55 53.9901 131.11 53.7501 130.62 53.6601C130.54 53.2501 130.36 52.8801 130.09 52.5701C129.63 51.9801 128.99 51.6501 128.27 51.6201L127.24 51.5401C126.55 51.5101 125.89 51.7201 125.32 52.1801C124.78 52.6301 124.45 53.2301 124.35 53.9401C124.34 54.0301 124.32 54.1601 124.29 54.3601H121.5C120.97 54.3601 120.48 54.5101 120.05 54.8001C119.97 54.6901 119.88 54.5801 119.77 54.4801C119.4 54.1101 118.97 53.8701 118.5 53.7601C118.39 53.2701 118.14 52.8301 117.77 52.4801C117.25 51.9601 116.6 51.6901 115.88 51.6901H99.45C98.73 51.6901 98.08 51.9601 97.59 52.4501C97.25 52.7701 97.02 53.1701 96.89 53.5901C96.54 53.2401 96.11 52.9901 95.63 52.8701C95.53 52.7201 95.38 52.5101 95.18 52.2201C94.79 51.6401 94.23 51.2201 93.61 51.0201C92.95 50.7701 92.24 50.7601 91.62 50.9601L91.2 51.0901C90.66 51.2501 90.22 51.5901 89.93 52.0701C89.9 52.0401 89.87 52.0101 89.84 51.9701C89.32 51.4501 88.67 51.1801 87.95 51.1801H87.13C86.41 51.1801 85.76 51.4501 85.22 52.0001C84.99 52.2401 84.82 52.5101 84.7 52.7901H75.32C74.61 52.7901 73.95 53.0601 73.46 53.5601C72.92 54.0601 72.64 54.7201 72.64 55.4501V55.6701C72.64 56.3801 72.91 57.0401 73.46 57.5801C73.68 57.7901 73.92 57.9501 74.18 58.0701C74.02 58.4201 73.93 58.8101 73.93 59.2101V62.2801C73.93 62.8601 74.11 63.4101 74.46 63.8801C74.16 64.0301 73.89 64.2401 73.65 64.5101C73.19 65.0301 72.96 65.6801 72.99 66.3401V66.7201C73.02 67.4301 73.31 68.0601 73.86 68.5801C73.94 68.6501 74.02 68.7201 74.11 68.7801C73.77 69.4501 73.39 70.0901 72.96 70.6701C72.55 71.2301 72.36 71.8901 72.42 72.5901C72.48 73.3201 72.82 73.9501 73.39 74.3901L73.98 74.8601C74.15 75.0001 74.34 75.1101 74.54 75.2001C74.7 75.6701 74.98 76.0801 75.39 76.3901L75.98 76.8601C76.56 77.3201 77.26 77.5101 77.93 77.4301C78.69 77.3701 79.33 77.0101 79.78 76.4001C79.9 76.2301 80.02 76.0601 80.14 75.8901C80.18 75.9001 80.21 75.9101 80.25 75.9301C80.25 75.9301 80.25 75.9401 80.25 75.9501C80.27 76.0301 80.3 76.1201 80.33 76.2101C80.37 76.3101 80.41 76.4101 80.44 76.4801C80.57 76.7701 80.71 76.9901 80.88 77.1601C81.53 77.8401 82.68 78.1801 84.56 78.2601C85.14 78.3001 86.21 78.3101 87.83 78.3101C89.3 78.3101 90.39 78.2801 91.16 78.2101C92.72 78.0701 93.76 77.7501 94.42 77.2101C94.61 77.0601 94.77 76.8701 94.92 76.6701C95.16 76.8701 95.43 77.0301 95.71 77.1301C96.4 77.4101 97.12 77.4001 97.83 77.0701L98.04 76.9701C98.04 76.9701 98.1 77.0601 98.14 77.1001C98.66 77.6201 99.31 77.8901 100.03 77.8901H119.24C119.96 77.8901 120.61 77.6201 121.12 77.1001C121.64 76.5801 121.91 75.9301 121.91 75.2201V74.9001C121.91 74.1901 121.64 73.5301 121.12 73.0201C120.78 72.6801 120.38 72.4401 119.94 72.3201C120.07 72.0101 120.13 71.6801 120.13 71.3401C120.13 70.8901 120.02 70.4701 119.83 70.1201C120.01 70.0101 120.18 69.8701 120.33 69.7101C120.85 69.1901 121.12 68.5401 121.12 67.8301V67.6801C121.12 66.9601 120.85 66.3101 120.35 65.8201C120.25 65.7101 120.14 65.6101 120.03 65.5301C120.36 65.0801 120.52 64.5601 120.52 63.9901V60.4301C120.63 60.4701 120.81 60.4301 120.93 60.4601C121.04 60.9401 121.22 61.1301 121.58 61.5001C121.76 61.6801 121.95 61.8301 122.16 61.9501C121.93 62.5101 121.68 63.0901 121.42 63.6901C121.11 64.3401 121.08 65.0501 121.35 65.8001C121.63 66.4501 122.13 66.9401 122.81 67.2201L123.23 67.3901C123.26 67.5301 123.3 67.6701 123.35 67.8101C123.58 68.3501 123.97 68.7801 124.48 69.0701C124.16 69.1401 123.85 69.2801 123.56 69.4701C122.97 69.8801 122.59 70.4701 122.47 71.1601L122.35 71.7701C122.2 72.5001 122.33 73.2101 122.73 73.7801C123.12 74.3701 123.68 74.7601 124.35 74.9101C124.42 75.2201 124.55 75.5201 124.73 75.7801C125.14 76.4101 125.74 76.8001 126.47 76.9301C128.18 77.2201 129.92 77.3701 131.66 77.3701C134.75 77.3701 137.27 76.6901 139.15 75.3601C141.18 73.9301 142.21 71.9901 142.21 69.6001C142.21 68.8901 142.12 68.2201 141.97 67.6001C142.09 67.6501 142.21 67.6901 142.34 67.7201C142.34 67.7401 142.35 67.7501 142.36 67.7701L142.48 68.0501C142.73 68.7201 143.2 69.2401 143.91 69.5801C144.38 69.7701 144.88 69.8301 145.35 69.7501C145.67 70.9101 146 72.1601 146.36 73.5101C146.54 74.2101 146.96 74.7701 147.58 75.1401C147.82 75.2901 148.08 75.3901 148.35 75.4501V75.5101C148.55 76.2101 148.97 76.7701 149.58 77.1401C150.01 77.4001 150.48 77.5301 150.96 77.5301C151.16 77.5301 151.36 77.5101 151.56 77.4601L152.22 77.3101C152.95 77.1501 153.54 76.7201 153.9 76.0801C154.28 75.4501 154.37 74.7501 154.19 74.0701C154.06 73.5601 153.92 73.0401 153.77 72.5201C154.14 72.7901 154.58 72.9401 155.03 72.9601C155.24 72.9801 155.55 72.9901 155.96 72.9901C157.03 72.9901 157.99 72.8301 158.84 72.5101C158.87 72.8001 158.94 73.0901 159.08 73.3601C159.39 74.0101 159.91 74.4801 160.58 74.7201L160.89 74.8301C160.93 75.0101 160.99 75.1901 161.08 75.3501C161.39 76.0001 161.91 76.4701 162.58 76.7101L163.47 77.0301C163.77 77.1401 164.08 77.1901 164.39 77.1901C164.77 77.1901 165.15 77.1101 165.52 76.9401C166.16 76.6501 166.65 76.1601 166.95 75.4901C167.96 73.1401 168.82 71.4001 169.51 70.3001C169.87 71.6601 170.38 72.7001 171.04 73.4401C171.41 73.8501 171.86 74.2001 172.36 74.4701C172.57 74.8401 172.79 75.1601 173.04 75.4401C174.06 76.5701 175.48 77.1401 177.24 77.1401C179 77.1401 180.38 76.5101 181.54 75.2701C182.59 74.1201 183.49 72.2401 184.29 69.5201C184.51 68.8201 184.43 68.1001 184.06 67.4501L184.08 67.4301ZM133.39 68.2101C133.27 68.3701 133.09 68.5301 132.85 68.6801C132.02 69.2201 130.72 69.4301 129.08 69.3801C129.14 69.3501 129.2 69.3201 129.25 69.2901C130.51 68.6101 131.9 68.2501 133.38 68.2101H133.39Z" fill="black"/>
<path d="M91.9805 52.1599C92.3804 52.02 92.7709 52.0304 93.1709 52.1804C93.5907 52.3105 93.9107 52.5503 94.1406 52.9001C94.5306 53.4601 94.7503 53.7706 94.7803 53.8406C94.8603 53.9704 94.9707 54.0398 95.1006 54.0398C95.4804 54.0798 95.7901 54.2302 96.04 54.49C96.31 54.75 96.4404 55.0704 96.4404 55.4304V55.6501C96.4404 56.0301 96.3005 56.3604 96.0205 56.6404C95.7405 56.9103 95.4102 57.0398 95.0303 57.0398H89.9102C89.7604 57.0399 89.7103 57.1106 89.7402 57.2605C89.9202 58.2904 90.0805 59.0804 90.2305 59.6404C90.2705 59.7702 90.3307 59.7901 90.4307 59.6902C90.8206 59.2802 91.2109 58.8405 91.5908 58.3806C91.8408 58.0707 92.1504 57.8803 92.5303 57.8103C92.9302 57.7303 93.2901 57.8005 93.6201 58.0105L94.04 58.28C94.37 58.49 94.5802 58.7907 94.6602 59.1707C94.74 59.5305 94.6698 59.8799 94.46 60.2097C93.67 61.3497 92.8106 62.3602 91.8906 63.2302C91.7906 63.3302 91.7708 63.43 91.8408 63.53C92.3508 64.32 92.7508 64.7205 93.0508 64.7205C93.3506 64.7202 93.6202 64.3399 93.8701 63.5603C93.9801 63.1903 94.2007 62.92 94.5107 62.74C94.8406 62.5601 95.1706 62.5204 95.5205 62.6404L95.5908 62.6599C95.9907 62.7899 96.3008 63.0402 96.5107 63.4001C96.7206 63.75 96.7806 64.1101 96.6807 64.49C96.2507 66.21 95.4904 67.3499 94.4004 67.9099C94.2804 67.9899 94.2706 68.0601 94.3506 68.1101C94.4806 68.2101 94.5804 68.3104 94.6504 68.4304C95.3604 69.5204 96.0209 70.6506 96.6309 71.8005C96.7407 72.0204 96.7602 72.2406 96.7402 72.4705C96.8102 72.2605 96.9102 72.0701 97.0801 71.9001C97.36 71.6202 97.6904 71.4803 98.0703 71.4802H105.79C105.92 71.4802 105.99 71.4103 105.99 71.2605V70.8406C105.99 70.7106 105.92 70.6404 105.79 70.6404H101.29C100.93 70.6403 100.61 70.5201 100.351 70.2703C100.101 70.0103 99.9805 69.6998 99.9805 69.3298C99.9805 68.96 100.101 68.6598 100.351 68.4099C100.61 68.1402 100.93 68.0106 101.29 68.0105H105.79C105.92 68.0105 105.99 67.9398 105.99 67.7898V67.4402C105.99 67.2902 105.92 67.2205 105.79 67.2205H101.41C101.26 67.2205 101.14 67.2705 101.061 67.3904C100.501 68.0804 99.9606 68.6905 99.4307 69.2205C99.1507 69.4904 98.8204 69.6001 98.4404 69.5701C98.0604 69.5401 97.75 69.3798 97.5 69.0798L97.0107 68.49C96.7607 68.18 96.6604 67.83 96.6904 67.45C96.7305 67.07 96.9007 66.7397 97.1807 66.4597C98.0405 65.5998 98.8402 64.6297 99.5801 63.5398C99.66 63.4299 99.6304 63.3699 99.4805 63.3699H99.46C99.0803 63.3698 98.7505 63.2302 98.4707 62.9705C98.1907 62.6905 98.0508 62.3602 98.0508 61.9802V54.3298C98.0509 53.95 98.1908 53.62 98.4707 53.3601C98.7506 53.0803 99.0802 52.9403 99.46 52.9402H115.891C116.271 52.9402 116.601 53.0802 116.881 53.3601C117.161 53.63 117.301 53.9501 117.301 54.3298V61.9802C117.301 62.3602 117.161 62.6905 116.881 62.9705C116.601 63.2404 116.271 63.3698 115.891 63.3699H110C109.97 63.3701 109.93 63.3904 109.9 63.4402C109.88 63.4701 109.881 63.5098 109.9 63.5398C110 63.6997 110.051 63.88 110.051 64.0798C110.051 64.1898 110.101 64.2498 110.221 64.2498H116.511C116.891 64.2498 117.221 64.3907 117.48 64.6707C117.76 64.9505 117.9 65.2801 117.9 65.6599V65.8103C117.9 66.1902 117.76 66.5206 117.48 66.8005C117.211 67.0803 116.891 67.2204 116.511 67.2205H110.25C110.12 67.2206 110.051 67.2904 110.051 67.4402V67.7898C110.051 67.9396 110.12 68.0103 110.25 68.0105H115.601C115.97 68.0105 116.271 68.15 116.521 68.4099C116.79 68.6598 116.921 68.97 116.921 69.3298C116.921 69.6898 116.781 70.0103 116.521 70.2703C116.271 70.5202 115.961 70.6403 115.601 70.6404H110.25C110.12 70.6405 110.051 70.7107 110.051 70.8406V71.2605C110.051 71.4101 110.12 71.4801 110.25 71.4802H117.29C117.67 71.4802 118 71.6202 118.28 71.9001C118.56 72.1801 118.7 72.5104 118.7 72.8904V73.2097C118.7 73.5897 118.56 73.92 118.28 74.2C118 74.48 117.67 74.6199 117.29 74.6199H98.0801C97.7003 74.6198 97.3707 74.4798 97.0908 74.2C96.8108 73.92 96.6709 73.5897 96.6709 73.2097V72.8406C96.5509 73.1805 96.3302 73.4404 95.9902 73.6003L95.3203 73.9207C94.9604 74.0805 94.5904 74.0901 94.2305 73.9402C93.8605 73.8102 93.5902 73.5704 93.4102 73.2205C93.3302 73.0705 93.2 72.8505 93.04 72.5505C92.8801 72.2406 92.7509 72.0101 92.6709 71.8601C92.6609 71.8401 92.6306 71.8206 92.6006 71.8406C92.5707 71.8505 92.5509 71.88 92.5508 71.9099C92.4008 73.0799 92.1101 73.8497 91.6602 74.2097C91.2202 74.5797 90.3606 74.8104 89.0908 74.9304C88.3608 75.0004 87.2901 75.03 85.8701 75.03C84.2905 75.03 83.2207 75.0102 82.6807 74.9802C81.1707 74.9102 80.2301 74.6705 79.8301 74.2605C79.4501 73.8605 79.2608 72.8903 79.2607 71.3406V69.8298C79.2608 69.45 79.4008 69.1205 79.6807 68.8406C79.9607 68.5606 80.2909 68.4207 80.6709 68.4207H81.7803C82.1603 68.4207 82.4905 68.5606 82.7705 68.8406C83.0503 69.1204 83.1903 69.4501 83.1904 69.8298V70.8904C83.1904 71.35 83.2201 71.6301 83.29 71.7302C83.36 71.8302 83.5504 71.9004 83.8604 71.9304C84.2604 71.9804 84.8807 71.9998 85.7207 71.9998C86.4804 71.9998 87.1002 71.9804 87.5801 71.9304C88.0301 71.9004 88.3405 71.8297 88.5205 71.7097C88.7104 71.5797 88.8409 71.32 88.9209 70.9402C89.0009 70.5803 89.1904 70.2805 89.4902 70.0505C89.7901 69.8007 90.1101 69.7102 90.46 69.78L91.3506 69.9304C91.4204 69.9304 91.4507 69.8901 91.4209 69.8103C91.2509 69.5403 91.2005 69.27 91.2705 68.99C91.3405 68.7002 91.5103 68.4803 91.79 68.3503L92.04 68.2302C92.06 68.2202 92.0805 68.1899 92.0605 68.1599C92.0605 68.1102 92.0405 68.0803 92.0107 68.0603C90.9007 67.7103 89.9002 66.9099 88.9902 65.6599C88.8904 65.5303 88.7907 65.5105 88.6709 65.6101C88.6509 65.6201 88.6203 65.6504 88.5703 65.6804C88.5205 65.7003 88.4907 65.7103 88.4707 65.7302C88.1307 65.9202 87.7604 65.9703 87.3604 65.8503C86.9804 65.7403 86.6902 65.5099 86.4902 65.1599L86.0908 64.4705C85.8908 64.1405 85.8404 63.8097 85.9404 63.4597C86.0604 63.09 86.2806 62.8203 86.6104 62.6404C86.6603 62.6104 86.7302 62.5702 86.8301 62.5203C86.9301 62.4503 87.0008 62.3999 87.0508 62.3699C87.1705 62.2999 87.2003 62.1999 87.1504 62.0701C86.6604 60.7001 86.29 59.0899 86.04 57.24C86 57.1102 85.9199 57.0398 85.79 57.0398H75.3203C74.9404 57.0398 74.61 56.9004 74.3301 56.6404C74.0501 56.3604 73.9102 56.0301 73.9102 55.6501V55.4304C73.9102 55.0504 74.0501 54.7197 74.3301 54.4597C74.61 54.1798 74.9404 54.0398 75.3203 54.0398H85.54C85.6899 54.0398 85.7606 53.9703 85.7607 53.8406C85.7407 53.4606 85.8709 53.1303 86.1309 52.8503C86.4108 52.5705 86.7403 52.4305 87.1201 52.4304H87.9404C88.3204 52.4304 88.6407 52.5703 88.9307 52.8503C89.2205 53.1303 89.3609 53.4607 89.3809 53.8406C89.381 53.9702 89.4504 54.0397 89.5801 54.0398H90.9404C90.9904 54.0398 91.02 54.02 91.04 53.99C91.07 53.94 91.07 53.8999 91.04 53.8699C90.8403 53.59 90.7907 53.2798 90.8906 52.95C91.0106 52.6001 91.2306 52.38 91.5605 52.28L91.9805 52.1599ZM150.9 57.4207C151.28 57.3207 151.631 57.3701 151.961 57.5701C152.301 57.75 152.54 58.0302 152.65 58.4099C152.68 58.5199 152.731 58.7 152.801 58.95C152.881 59.18 152.941 59.3703 152.971 59.5203C153.011 59.6902 153.091 59.7505 153.221 59.7205C153.811 59.6205 154.341 59.5701 154.801 59.5701L154.83 59.5505C156.25 59.5505 157.411 59.9901 158.301 60.8601C159.191 61.7301 159.641 62.9004 159.641 64.3503C159.641 66.0202 159.141 67.3205 158.131 68.2605C157.121 69.1905 155.751 69.6501 154.021 69.6501C153.651 69.6501 153.38 69.6506 153.2 69.6306C152.8 69.6106 152.491 69.44 152.261 69.1101C152.031 68.7801 151.94 68.4202 151.99 68.0203L152.021 67.7703C152.051 67.3903 152.211 67.0803 152.511 66.8503C152.821 66.6204 153.17 66.5206 153.57 66.5505H153.94C154.6 66.5505 155.121 66.3704 155.521 66.0105C155.931 65.6505 156.141 65.16 156.141 64.53C156.141 63.9701 155.97 63.5201 155.62 63.1902C155.28 62.8603 154.78 62.7 154.141 62.7H154.091C153.971 62.7 153.941 62.7801 153.971 62.95C153.981 63.0299 154.01 63.1403 154.04 63.2703C154.09 63.4003 154.121 63.5106 154.141 63.5906C154.24 63.9704 154.19 64.3305 153.99 64.6804C153.79 65.0103 153.51 65.2201 153.15 65.3201L152.7 65.4402C152.32 65.5401 151.971 65.5 151.641 65.3201C151.311 65.1201 151.091 64.8402 150.971 64.4802C150.871 64.1902 150.801 63.9498 150.751 63.7898C150.731 63.7399 150.7 63.7006 150.65 63.6707C150.601 63.6507 150.551 63.6304 150.501 63.6501C150.371 63.7001 150.13 63.7907 149.78 63.9207C149.431 64.0405 149.161 64.1405 148.961 64.2205C148.841 64.2804 148.791 64.3701 148.811 64.49C149.631 67.28 150.371 69.9006 151.011 72.3406C151.111 72.7004 151.06 73.0507 150.86 73.3806C150.66 73.7204 150.37 73.9403 149.99 74.0203L149.32 74.1707C148.94 74.2606 148.591 74.1997 148.261 73.9998C147.931 73.7998 147.72 73.5105 147.62 73.1306C146.86 70.2406 146.181 67.7798 145.591 65.7498C145.561 65.6101 145.471 65.5608 145.341 65.6306C145.291 65.6506 145.03 65.7504 144.57 65.9304C144.111 66.1103 143.761 66.2504 143.511 66.3503C143.151 66.5003 142.781 66.5002 142.421 66.3503C142.071 66.1903 141.83 65.9203 141.7 65.5603L141.551 65.2107C141.411 64.8507 141.42 64.5001 141.57 64.1501C141.73 63.7802 142 63.5306 142.36 63.3806C142.62 63.2706 143.301 63.0006 144.391 62.5906C144.521 62.5306 144.57 62.4401 144.54 62.3201C144.44 61.97 144.2 61.2095 143.82 60.0398C143.71 59.66 143.741 59.3101 143.921 58.9802C144.101 58.6504 144.38 58.4303 144.74 58.3103L145.36 58.1404C145.74 58.0204 146.091 58.0605 146.421 58.2605C146.771 58.4405 147.011 58.7205 147.141 59.1003C147.48 60.1198 147.7 60.7797 147.78 61.0798C147.81 61.2098 147.891 61.2602 148.001 61.2302C148.561 61.0303 149.081 60.8606 149.561 60.7107C149.711 60.6407 149.761 60.5399 149.711 60.4099C149.681 60.3199 149.62 60.1297 149.54 59.8699C149.48 59.6101 149.42 59.41 149.37 59.28C149.26 58.9201 149.291 58.5699 149.471 58.24C149.671 57.8901 149.951 57.67 150.311 57.5701L150.9 57.4207ZM76.1406 68.3601C76.5005 68.2103 76.8503 68.2207 77.2002 68.3806L77.7705 68.6501L77.75 68.6707C78.11 68.8507 78.38 69.1305 78.54 69.5105C78.7 69.8704 78.7 70.2201 78.54 70.5701C78.1001 71.61 77.5007 72.6304 76.7607 73.6404C76.5308 73.9504 76.2203 74.1299 75.8203 74.1599C75.4304 74.2099 75.0707 74.11 74.7607 73.8601L74.1699 73.3904C73.8801 73.1504 73.7107 72.8503 73.6807 72.4705C73.6507 72.0805 73.7505 71.7199 73.9805 71.4099C74.5104 70.68 74.9702 69.9097 75.3701 69.0798C75.5401 68.73 75.7907 68.4901 76.1406 68.3601ZM127.19 52.7898L128.18 52.8601C128.56 52.8801 128.871 53.0298 129.101 53.3298C129.351 53.6098 129.45 53.9401 129.4 54.3201C129.38 54.4501 129.35 54.6404 129.3 54.8904C129.27 55.14 129.25 55.3099 129.23 55.4099C129.19 55.5399 129.25 55.6101 129.4 55.6101H138.83L138.811 55.6199C139.19 55.62 139.52 55.7601 139.8 56.0398C140.08 56.3198 140.22 56.6501 140.22 57.03V57.6003C140.22 57.9802 140.08 58.3097 139.8 58.5896C139.52 58.8695 139.19 59.0104 138.811 59.0105H128.64C128.49 59.0106 128.4 59.0801 128.37 59.2097C128.17 59.9297 127.84 60.9499 127.38 62.2498V62.3005H127.41C127.43 62.3202 127.44 62.3201 127.46 62.3201C129.04 61.8101 130.5 61.5506 131.84 61.5505C134.13 61.5505 135.89 62.0697 137.11 63.1296C138.33 64.1896 138.94 65.5699 138.94 67.5398C138.94 69.5098 138.1 71.0803 136.42 72.2703C134.75 73.4602 132.5 74.0505 129.66 74.0505C128 74.0505 126.34 73.9096 124.69 73.6296C124.31 73.5696 124.01 73.3698 123.8 73.0398C123.58 72.7299 123.521 72.3801 123.601 71.9802L123.72 71.3601C123.79 70.9802 123.98 70.6805 124.29 70.4705C124.63 70.2505 124.98 70.1798 125.36 70.2498C126.95 70.5297 128.38 70.6697 129.67 70.6697C131.3 70.6697 132.59 70.3598 133.53 69.7498C134.47 69.1398 134.94 68.33 134.94 67.3201C134.94 65.7301 133.85 64.9402 131.65 64.9402C129.85 64.9402 128.18 65.3504 126.65 66.1804C125.85 66.6204 125.02 66.6803 124.18 66.3503L123.311 65.9998C122.941 65.8498 122.69 65.6103 122.54 65.2605C122.41 64.9005 122.43 64.55 122.59 64.2C123.48 62.2 124.121 60.5399 124.521 59.2C124.55 59.0701 124.5 58.9998 124.37 58.9998H121.5C121.12 58.9997 120.79 58.8598 120.51 58.5798C120.23 58.2999 120.09 57.9695 120.09 57.5896V57.0203C120.09 56.6403 120.23 56.31 120.51 56.03C120.79 55.7501 121.12 55.6101 121.5 55.6101H125.16C125.3 55.6101 125.38 55.5399 125.41 55.4099C125.44 55.25 125.48 55.0202 125.51 54.7205C125.56 54.4305 125.59 54.2098 125.61 54.0798C125.66 53.7001 125.83 53.3903 126.13 53.1404C126.44 52.8904 126.79 52.7698 127.19 52.7898ZM167.86 53.3503C168.22 53.1704 168.591 53.1298 168.971 53.2498L169.911 53.5203C170.281 53.6203 170.531 53.8403 170.681 54.1902C170.851 54.5202 170.86 54.85 170.73 55.2C169.74 57.68 168.82 60.0004 167.98 62.1804C167.981 62.2102 168.001 62.2302 168.001 62.2302H168.051C168.911 61.7502 169.641 61.5105 170.251 61.5105C171.341 61.5106 172.19 61.9105 172.78 62.7205C173.39 63.5305 173.82 64.9202 174.07 66.9001C174.22 68.1201 174.391 68.9403 174.591 69.3503C174.791 69.76 175.051 69.9703 175.36 69.9705C176.11 69.9705 176.861 68.6999 177.641 66.1599C177.761 65.79 177.981 65.5196 178.311 65.3396C178.641 65.1396 178.991 65.0902 179.371 65.1902L180.11 65.3904C180.49 65.4904 180.78 65.7103 180.98 66.0603L181.055 66.2087C181.188 66.5103 181.207 66.8254 181.11 67.1404C180.37 69.6601 179.551 71.42 178.641 72.4099C177.731 73.3799 176.681 73.8699 175.271 73.8699C173.861 73.8698 172.771 73.4398 172.001 72.5798C171.241 71.7198 170.701 70.2497 170.391 68.1697C170.221 67.1002 170.041 66.3705 169.841 65.9705C169.641 65.5805 169.38 65.3796 169.07 65.3796C168.39 65.3799 167.651 65.9302 166.841 67.0398C166.031 68.1498 165.011 70.1302 163.791 72.9802C163.631 73.3402 163.361 73.6103 163.001 73.7703C162.641 73.9402 162.271 73.9499 161.911 73.8201L161.021 73.4998C160.661 73.3697 160.39 73.1299 160.23 72.78C160.061 72.4501 160.051 72.0999 160.181 71.74C163.291 63.8002 165.591 57.9304 167.091 54.1404C167.241 53.7805 167.501 53.5203 167.86 53.3503ZM85.6602 66.7205C86.0702 66.6705 86.4405 66.7703 86.7705 67.0203C87.0805 67.2303 87.5508 67.5998 88.1807 68.1296C88.4807 68.3796 88.6304 68.7003 88.6504 69.1003C88.6603 69.4802 88.5299 69.8101 88.25 70.0701L87.9805 70.3699C87.7205 70.6299 87.3902 70.7698 86.9902 70.7898C86.6203 70.7998 86.2804 70.6901 85.9805 70.4402C85.4705 69.9902 84.9602 69.58 84.4502 69.2C84.1703 68.99 84.0105 68.71 83.9805 68.3601C83.9505 67.9902 84.0702 67.6901 84.3301 67.4402L84.6006 67.1902C84.8905 66.9103 85.2503 66.7505 85.6602 66.7205ZM84.2402 64.1501C84.6102 64.1001 84.9309 64.2 85.2109 64.45C85.4908 64.6899 85.6308 64.9901 85.6309 65.3699V65.5701C85.6309 65.98 85.4904 66.3499 85.2305 66.6599C84.9805 66.9599 84.6607 67.1304 84.2607 67.1804C81.6707 67.5104 78.8202 67.7705 75.7002 67.9705C75.3204 67.9804 74.9908 67.8698 74.7109 67.6199C74.431 67.3499 74.2807 67.0301 74.2607 66.6501V66.3298C74.2508 65.9502 74.3607 65.6204 74.6104 65.3406C74.8804 65.0406 75.2011 64.8899 75.5811 64.8699C78.6807 64.6999 81.5705 64.4601 84.2402 64.1501ZM103.73 63.3601C103.601 63.3601 103.511 63.4301 103.48 63.5798C103.45 63.7398 103.41 63.8699 103.36 63.95C103.33 64.01 103.31 64.0501 103.29 64.0701C103.27 64.1001 103.251 64.1402 103.271 64.1902C103.301 64.2202 103.391 64.24 103.391 64.24H105.841C105.941 64.2399 105.99 64.1899 105.99 64.0701C105.99 63.9101 106.04 63.73 106.16 63.53C106.24 63.4201 106.21 63.3601 106.061 63.3601H103.73ZM83.5 57.7898C83.8799 57.7898 84.2107 57.9298 84.4707 58.2097C84.7507 58.4897 84.8906 58.82 84.8906 59.2V62.2703C84.8906 62.6502 84.7507 62.9805 84.4707 63.2605C84.2007 63.5404 83.88 63.6804 83.5 63.6804H76.5908C76.2109 63.6804 75.8805 63.5403 75.6006 63.2605C75.3306 62.9805 75.2002 62.6502 75.2002 62.2703V59.2C75.2002 58.82 75.3406 58.4897 75.6006 58.2097C75.8805 57.9299 76.2109 57.7898 76.5908 57.7898H83.5ZM78.6904 60.0398C78.5605 60.0398 78.4902 60.1105 78.4902 60.2605V61.3005C78.4904 61.4303 78.5606 61.4997 78.6904 61.4998H81.5908C81.7205 61.4996 81.7899 61.4302 81.79 61.3005V60.2605C81.79 60.1106 81.7206 60.0399 81.5908 60.0398H78.6904ZM102.2 59.49C102.05 59.4901 101.98 59.5603 101.98 59.6902V60.3601C101.98 60.51 102.05 60.5798 102.2 60.5798H113.16C113.29 60.5798 113.36 60.5101 113.36 60.3601V59.6902C113.36 59.5602 113.29 59.49 113.16 59.49H102.2ZM102.2 55.9802C102.05 55.9803 101.981 56.0502 101.98 56.2V56.8201C101.98 56.97 102.05 57.0397 102.2 57.0398H113.16C113.29 57.0398 113.36 56.9701 113.36 56.8201V56.2C113.36 56.0501 113.29 55.9802 113.16 55.9802H102.2Z" fill="#FFC737"/>
</svg>
