<svg width="40" height="49" viewBox="0 0 40 49" fill="none" xmlns="http://www.w3.org/2000/svg">
<g clip-path="url(#clip0_21_7)">
<path d="M38 20C38 37.1408 20 47 20 47C20 47 2 37.1408 2 20C2 15.2261 3.89642 10.6477 7.27208 7.27208C10.6477 3.89642 15.2261 2 20 2C24.7739 2 29.3523 3.89642 32.7279 7.27208C36.1036 10.6477 38 15.2261 38 20Z" fill="#EB3322"/>
<path d="M21.2012 48.2244C20.453 48.6342 19.547 48.6342 18.7988 48.2244L20 46.031L21.2012 48.2244ZM37.3252 20.0437C37.3252 15.5924 35.6118 11.3181 32.5508 8.10132L32.251 7.79272C29.1035 4.64526 24.8695 2.83364 20.4307 2.72339L20 2.71851C15.4051 2.71851 10.9981 4.54362 7.74902 7.79272C4.49992 11.0418 2.6748 15.4488 2.6748 20.0437L2.6875 20.8123C3.2113 36.804 19.9326 45.994 20 46.031C18.799 48.2236 18.7978 48.2239 18.7969 48.2234L18.7949 48.2224C18.7934 48.2216 18.7921 48.2196 18.79 48.2185C18.7858 48.2162 18.7797 48.2132 18.7734 48.2097C18.7609 48.2028 18.7441 48.1939 18.7236 48.1824C18.6821 48.159 18.6243 48.1258 18.5518 48.0837C18.4066 47.9996 18.201 47.8785 17.9443 47.7205C17.431 47.4044 16.7102 46.94 15.8506 46.3328C14.1352 45.1209 11.8454 43.3229 9.54883 40.9714C4.9871 36.3008 0.174805 29.2098 0.174805 20.0437C0.174805 14.7857 2.2635 9.74309 5.98145 6.02515C9.69939 2.3072 14.742 0.218506 20 0.218506C25.258 0.218506 30.3006 2.3072 34.0186 6.02515C37.7365 9.74309 39.8252 14.7857 39.8252 20.0437C39.8252 29.2098 35.0129 36.3008 30.4512 40.9714C28.1546 43.3229 25.8648 45.1209 24.1494 46.3328C23.2898 46.94 22.569 47.4044 22.0557 47.7205C21.799 47.8785 21.5934 47.9996 21.4482 48.0837C21.3757 48.1258 21.3179 48.159 21.2764 48.1824C21.2559 48.1939 21.2391 48.2028 21.2266 48.2097C21.2203 48.2132 21.2142 48.2162 21.21 48.2185C21.2079 48.2196 21.2066 48.2216 21.2051 48.2224L21.2031 48.2234L20 46.031C20.0676 45.9939 36.7887 36.8039 37.3125 20.8123L37.3252 20.0437Z" fill="black"/>
<path d="M21.1662 12.383C21.5618 13.7749 21.7598 14.4717 22.0677 15.0823C22.7936 16.5213 23.9893 17.6902 25.4698 18.4099C26.0979 18.7152 26.816 18.9161 28.2519 19.3163C28.8165 19.4737 29.331 19.6164 29.8023 19.7448C30.0659 19.8166 30.0659 20.1842 29.8023 20.256C29.331 20.3844 28.8166 20.5271 28.2519 20.6845C26.8159 21.0847 26.098 21.2856 25.4698 21.5909C23.9892 22.3107 22.7935 23.4804 22.0677 24.9195C21.76 25.53 21.5617 26.2263 21.1662 27.6178L20.2584 30.8095C20.1861 31.0636 19.813 31.0635 19.7409 30.8094L18.8348 27.6178C18.4393 26.2264 18.241 25.53 17.9333 24.9195C17.2075 23.4804 16.0118 22.3107 14.5312 21.5909C13.903 21.2856 13.185 21.0847 11.7491 20.6845C11.1841 20.527 10.6693 20.3843 10.1977 20.2559C9.93411 20.1842 9.93411 19.8166 10.1977 19.7449C10.6693 19.6165 11.1841 19.4738 11.7491 19.3163C13.185 18.9161 13.903 18.7152 14.5312 18.4099C16.0117 17.6902 17.2074 16.5213 17.9333 15.0823C18.2412 14.4717 18.4392 13.7749 18.8348 12.383L19.7409 9.19064C19.813 8.93652 20.1862 8.93643 20.2584 9.19052L21.1662 12.383Z" fill="#FFC737"/>
<path d="M17.4347 9.31772C18.3286 6.87735 21.9271 6.95819 22.6418 9.56088L23.4543 12.5189C23.8339 13.9018 23.9483 14.2791 24.0978 14.5863L24.2638 14.8939C24.6787 15.5935 25.287 16.1632 26.0187 16.5316H26.0178C26.3236 16.6855 26.7006 16.8054 28.0763 17.2025C28.5804 17.348 29.0353 17.4783 29.4494 17.5951C32.1137 18.3465 32.1137 22.1297 29.4494 22.8812C29.0353 22.998 28.5804 23.1283 28.0763 23.2738C26.7012 23.6707 26.3245 23.7909 26.0187 23.9447C25.1829 24.3654 24.5074 25.05 24.0978 25.891C23.9482 26.1985 23.8333 26.5766 23.4543 27.9574V27.9583L22.6418 30.9154C21.9036 33.6015 18.0942 33.6001 17.3576 30.9134L16.5471 27.9574L16.3078 27.0951C16.1087 26.3919 16.0157 26.1216 15.9035 25.891L15.7375 25.5824C15.3225 24.8825 14.7139 24.3128 13.9826 23.9447V23.9437C13.677 23.79 13.2996 23.6705 11.925 23.2738C11.421 23.1283 10.9661 22.9979 10.5519 22.8812C7.88698 22.1301 7.88699 18.3461 10.5519 17.5951C10.9661 17.4783 11.4211 17.3479 11.925 17.2025C13.3008 16.8054 13.6778 16.6855 13.9836 16.5316C14.8197 16.1106 15.4942 15.4265 15.9035 14.5863C16.053 14.2791 16.1675 13.9018 16.5471 12.5189L17.3576 9.56186L17.4347 9.31772ZM20.2316 10.223C20.167 9.98758 19.8333 9.98755 19.7687 10.223L18.9582 13.181C18.6042 14.4704 18.4271 15.1163 18.1515 15.682L18.0246 15.929C17.3671 17.1488 16.3492 18.1399 15.1076 18.765L14.8918 18.8665C14.3747 19.0968 13.7425 19.2803 12.6183 19.6048L11.3742 19.9593C11.3254 19.9731 11.2774 19.9879 11.2297 20.0013C10.9939 20.0678 10.994 20.4084 11.2297 20.4749C11.6516 20.5939 12.1128 20.7265 12.6183 20.8724C13.9028 21.2432 14.5456 21.4294 15.1076 21.7123C16.4321 22.3792 17.5022 23.463 18.1515 24.7962C18.4267 25.3617 18.6044 26.0074 18.9582 27.2962L19.7687 30.2533C19.8255 30.4587 20.0874 30.4845 20.1955 30.3304L20.2316 30.2533L21.0441 27.2962C21.398 26.0071 21.5754 25.3618 21.8508 24.7962C22.5002 23.4628 23.5699 22.3791 24.8947 21.7123C25.3951 21.4604 25.959 21.2848 26.9836 20.9876L27.384 20.8724C27.889 20.7266 28.3491 20.5938 28.7707 20.4749C29.0065 20.4084 29.0065 20.0678 28.7707 20.0013C28.7226 19.9878 28.6743 19.9732 28.6252 19.9593L27.384 19.6048C26.2596 19.2803 25.6267 19.0968 25.1096 18.8665L24.8947 18.765C23.5703 18.0983 22.5002 17.0149 21.8508 15.682C21.5753 15.1163 21.398 14.4703 21.0441 13.181L20.2316 10.223Z" fill="black"/>
</g>
<defs>
<clipPath id="clip0_21_7">
<rect width="40" height="49" fill="white"/>
</clipPath>
</defs>
</svg>
